<svg xmlns="http://www.w3.org/2000/svg" width="512" height="512" viewBox="0 0 512 512">
  <defs>
    <linearGradient id="gradient" gradientUnits="userSpaceOnUse" x1="51" y1="103" x2="461" y2="409">
      <stop offset="0" stop-color="#2b7fff" />
      <stop offset="1" stop-color="#f6339a" />
    </linearGradient>
  </defs>
  
  <path 
    d="M 256,123 A 138 138 0 0 0 389,256 A 138 138 0 0 0 256,389 A 138 138 0 0 0 123,256 A 138 138 0 0 0 256,123 Z"
    fill="url(#gradient)"
  />
  
  <line x1="69" y1="103" x2="69" y2="409" stroke="url(#gradient)" stroke-width="36" />
  <line x1="51" y1="121" x2="141" y2="121" stroke="url(#gradient)" stroke-width="36" />
  <line x1="51" y1="391" x2="141" y2="391" stroke="url(#gradient)" stroke-width="36" />
  
  <line x1="443" y1="103" x2="443" y2="409" stroke="url(#gradient)" stroke-width="36" />
  <line x1="461" y1="121" x2="371" y2="121" stroke="url(#gradient)" stroke-width="36" />
  <line x1="461" y1="391" x2="371" y2="391" stroke="url(#gradient)" stroke-width="36" />
</svg>
